<svg width="48" height="48" viewBox="0 0 48 48" fill="none" xmlns="http://www.w3.org/2000/svg">
<path d="M9 44C8.2 44 7.5 43.7 6.9 43.1C6.3 42.5 6 41.8 6 41V10C6 9.2 6.3 8.5 6.9 7.9C7.5 7.3 8.2 7 9 7H12.25V4H15.5V7H32.5V4H35.75V7H39C39.8 7 40.5 7.3 41.1 7.9C41.7 8.5 42 9.2 42 10V41C42 41.8 41.7 42.5 41.1 43.1C40.5 43.7 39.8 44 39 44H9ZM9 41H39V19.5H9V41ZM9 16.5H39V10H9V16.5ZM9 16.5V10V16.5ZM24 28C23.4333 28 22.9583 27.8083 22.575 27.425C22.1917 27.0417 22 26.5667 22 26C22 25.4333 22.1917 24.9583 22.575 24.575C22.9583 24.1917 23.4333 24 24 24C24.5667 24 25.0417 24.1917 25.425 24.575C25.8083 24.9583 26 25.4333 26 26C26 26.5667 25.8083 27.0417 25.425 27.425C25.0417 27.8083 24.5667 28 24 28ZM16 28C15.4333 28 14.9583 27.8083 14.575 27.425C14.1917 27.0417 14 26.5667 14 26C14 25.4333 14.1917 24.9583 14.575 24.575C14.9583 24.1917 15.4333 24 16 24C16.5667 24 17.0417 24.1917 17.425 24.575C17.8083 24.9583 18 25.4333 18 26C18 26.5667 17.8083 27.0417 17.425 27.425C17.0417 27.8083 16.5667 28 16 28ZM32 28C31.4333 28 30.9583 27.8083 30.575 27.425C30.1917 27.0417 30 26.5667 30 26C30 25.4333 30.1917 24.9583 30.575 24.575C30.9583 24.1917 31.4333 24 32 24C32.5667 24 33.0417 24.1917 33.425 24.575C33.8083 24.9583 34 25.4333 34 26C34 26.5667 33.8083 27.0417 33.425 27.425C33.0417 27.8083 32.5667 28 32 28ZM24 36C23.4333 36 22.9583 35.8083 22.575 35.425C22.1917 35.0417 22 34.5667 22 34C22 33.4333 22.1917 32.9583 22.575 32.575C22.9583 32.1917 23.4333 32 24 32C24.5667 32 25.0417 32.1917 25.425 32.575C25.8083 32.9583 26 33.4333 26 34C26 34.5667 25.8083 35.0417 25.425 35.425C25.0417 35.8083 24.5667 36 24 36ZM16 36C15.4333 36 14.9583 35.8083 14.575 35.425C14.1917 35.0417 14 34.5667 14 34C14 33.4333 14.1917 32.9583 14.575 32.575C14.9583 32.1917 15.4333 32 16 32C16.5667 32 17.0417 32.1917 17.425 32.575C17.8083 32.9583 18 33.4333 18 34C18 34.5667 17.8083 35.0417 17.425 35.425C17.0417 35.8083 16.5667 36 16 36ZM32 36C31.4333 36 30.9583 35.8083 30.575 35.425C30.1917 35.0417 30 34.5667 30 34C30 33.4333 30.1917 32.9583 30.575 32.575C30.9583 32.1917 31.4333 32 32 32C32.5667 32 33.0417 32.1917 33.425 32.575C33.8083 32.9583 34 33.4333 34 34C34 34.5667 33.8083 35.0417 33.425 35.425C33.0417 35.8083 32.5667 36 32 36Z" fill="white"/>
</svg>
