<svg width="40" height="40" viewBox="0 0 40 40" fill="none" xmlns="http://www.w3.org/2000/svg">
<path d="M7.5 32.4999H9.33333L27.7917 14.0416L25.9583 12.2083L7.5 30.6666V32.4999ZM33.0833 12.2499L27.75 6.91659L29.5 5.16659C29.9722 4.69436 30.5556 4.45825 31.25 4.45825C31.9444 4.45825 32.5278 4.69436 33 5.16659L34.8333 6.99992C35.3056 7.47214 35.5417 8.05547 35.5417 8.74992C35.5417 9.44436 35.3056 10.0277 34.8333 10.4999L33.0833 12.2499ZM31.3333 13.9999L10.3333 34.9999H5V29.6666L26 8.66658L31.3333 13.9999ZM26.875 13.1249L25.9583 12.2083L27.7917 14.0416L26.875 13.1249Z" fill="white"/>
</svg>
