<svg width="33" height="33" viewBox="0 0 33 33" fill="none" xmlns="http://www.w3.org/2000/svg">
<circle cx="16.5" cy="16.5" r="16.5" fill="#F19E43" fill-opacity="0.31"/>
<path d="M10.7244 21.25C10.2602 21.25 9.89681 21.0906 9.63417 20.7719C9.37154 20.4531 9.27686 20.0125 9.35016 19.45L10.2297 13.1688C10.3274 12.5063 10.6298 11.9375 11.1367 11.4625C11.6437 10.9875 12.2209 10.75 12.8683 10.75H20.8024C21.4498 10.75 22.027 10.9875 22.534 11.4625C23.0409 11.9375 23.3433 12.5063 23.441 13.1688L24.3022 19.45C24.3755 20.0125 24.2808 20.4531 24.0182 20.7719C23.7555 21.0906 23.3921 21.25 22.9279 21.25C22.647 21.25 22.4087 21.2031 22.2133 21.1094C22.0178 21.0156 21.8529 20.9 21.7186 20.7625L19.8129 18.8125H13.8394L11.9338 20.7625C11.7994 20.9 11.6345 21.0156 11.439 21.1094C11.2436 21.2031 11.0054 21.25 10.7244 21.25ZM11.0543 20.05L13.363 17.6875H20.2893L22.5981 20.05C22.6592 20.1125 22.7691 20.1687 22.9279 20.2188C23.0379 20.2188 23.1203 20.1625 23.1753 20.05C23.2303 19.9375 23.2455 19.825 23.2211 19.7125L22.3416 13.3563C22.2805 12.9188 22.1003 12.5625 21.801 12.2875C21.5017 12.0125 21.1689 11.875 20.8024 11.875H12.85C12.4835 11.875 12.1506 12.0125 11.8513 12.2875C11.552 12.5625 11.3719 12.9188 11.3108 13.3563L10.4312 19.7125C10.4068 19.825 10.4221 19.9375 10.4771 20.05C10.532 20.1625 10.6145 20.2188 10.7244 20.2188C10.8099 20.2188 10.9199 20.1625 11.0543 20.05ZM20.8574 16.75C21.0528 16.75 21.2238 16.675 21.3704 16.525C21.517 16.375 21.5903 16.2 21.5903 16C21.5903 15.8 21.517 15.625 21.3704 15.475C21.2238 15.325 21.0528 15.25 20.8574 15.25C20.6619 15.25 20.4909 15.325 20.3443 15.475C20.1977 15.625 20.1244 15.8 20.1244 16C20.1244 16.2 20.1977 16.375 20.3443 16.525C20.4909 16.675 20.6619 16.75 20.8574 16.75ZM19.2999 14.3125C19.4953 14.3125 19.6663 14.2375 19.8129 14.0875C19.9595 13.9375 20.0328 13.7625 20.0328 13.5625C20.0328 13.3625 19.9595 13.1875 19.8129 13.0375C19.6663 12.8875 19.4953 12.8125 19.2999 12.8125C19.1044 12.8125 18.9334 12.8875 18.7868 13.0375C18.6402 13.1875 18.5669 13.3625 18.5669 13.5625C18.5669 13.7625 18.6402 13.9375 18.7868 14.0875C18.9334 14.2375 19.1044 14.3125 19.2999 14.3125ZM13.5279 16.6562H14.4441V15.25H15.8184V14.3125H14.4441V12.9062H13.5279V14.3125H12.1537V15.25H13.5279V16.6562Z" fill="#F19E43"/>
</svg>
