<svg width="48" height="48" viewBox="0 0 48 48" fill="none" xmlns="http://www.w3.org/2000/svg">
<path d="M7.26383 38C6.02598 38 5.05686 37.575 4.3565 36.725C3.65613 35.875 3.40367 34.7 3.59912 33.2L5.94454 16.45C6.20514 14.6833 7.01138 13.1667 8.36325 11.9C9.71512 10.6333 11.2543 10 12.9808 10H34.1384C35.8649 10 37.4041 10.6333 38.7559 11.9C40.1078 13.1667 40.914 14.6833 41.1746 16.45L43.4712 33.2C43.6666 34.7 43.4142 35.875 42.7138 36.725C42.0134 37.575 41.0443 38 39.8065 38C39.0572 38 38.422 37.875 37.9008 37.625C37.3796 37.375 36.9399 37.0667 36.5815 36.7L31.4998 31.5H15.5705L10.4888 36.7C10.1305 37.0667 9.69069 37.375 9.16948 37.625C8.64828 37.875 8.01306 38 7.26383 38ZM8.14336 34.8L14.3001 28.5H32.7702L38.9269 34.8C39.0898 34.9667 39.383 35.1167 39.8065 35.25C40.0997 35.25 40.3195 35.1 40.4661 34.8C40.6127 34.5 40.6534 34.2 40.5883 33.9L38.2429 16.95C38.08 15.7833 37.5995 14.8333 36.8014 14.1C36.0033 13.3667 35.1156 13 34.1384 13H12.9319C11.9547 13 11.067 13.3667 10.2689 14.1C9.47081 14.8333 8.99032 15.7833 8.82744 16.95L6.48203 33.9C6.41688 34.2 6.4576 34.5 6.60419 34.8C6.75077 35.1 6.97066 35.25 7.26383 35.25C7.49186 35.25 7.78504 35.1 8.14336 34.8ZM34.285 26C34.8062 26 35.2622 25.8 35.6531 25.4C36.044 25 36.2395 24.5333 36.2395 24C36.2395 23.4667 36.044 23 35.6531 22.6C35.2622 22.2 34.8062 22 34.285 22C33.7638 22 33.3077 22.2 32.9168 22.6C32.5259 23 32.3305 23.4667 32.3305 24C32.3305 24.5333 32.5259 25 32.9168 25.4C33.3077 25.8 33.7638 26 34.285 26ZM30.1316 19.5C30.6528 19.5 31.1089 19.3 31.4998 18.9C31.8907 18.5 32.0861 18.0333 32.0861 17.5C32.0861 16.9667 31.8907 16.5 31.4998 16.1C31.1089 15.7 30.6528 15.5 30.1316 15.5C29.6104 15.5 29.1544 15.7 28.7635 16.1C28.3726 16.5 28.1771 16.9667 28.1771 17.5C28.1771 18.0333 28.3726 18.5 28.7635 18.9C29.1544 19.3 29.6104 19.5 30.1316 19.5ZM14.7398 25.75H17.183V22H20.8477V19.5H17.183V15.75H14.7398V19.5H11.0751V22H14.7398V25.75Z" fill="white"/>
</svg>
