<svg width="40" height="40" viewBox="0 0 40 40" fill="none" xmlns="http://www.w3.org/2000/svg">
<path d="M22.4993 22.5001C21.1105 22.5001 19.9299 22.014 18.9577 21.0417C17.9855 20.0695 17.4993 18.889 17.4993 17.5001C17.4993 16.1112 17.9855 14.9306 18.9577 13.9584C19.9299 12.9862 21.1105 12.5001 22.4993 12.5001C23.8882 12.5001 25.0688 12.9862 26.041 13.9584C27.0132 14.9306 27.4994 16.1112 27.4994 17.5001C27.4994 18.889 27.0132 20.0695 26.041 21.0417C25.0688 22.014 23.8882 22.5001 22.4993 22.5001ZM9.16602 28.3334C8.47157 28.3334 7.88129 28.0904 7.39518 27.6042C6.90907 27.1181 6.66602 26.5279 6.66602 25.8334V9.16675C6.66602 8.4723 6.90907 7.88203 7.39518 7.39591C7.88129 6.9098 8.47157 6.66675 9.16602 6.66675H35.8327C36.5271 6.66675 37.1174 6.9098 37.6035 7.39591C38.0896 7.88203 38.3327 8.4723 38.3327 9.16675V25.8334C38.3327 26.5279 38.0896 27.1181 37.6035 27.6042C37.1174 28.0904 36.5271 28.3334 35.8327 28.3334H9.16602ZM13.3327 25.8334H31.666C31.666 24.6667 32.0688 23.6806 32.8744 22.8751C33.6799 22.0695 34.666 21.6667 35.8327 21.6667V13.3334C34.666 13.3334 33.6799 12.9306 32.8744 12.1251C32.0688 11.3195 31.666 10.3334 31.666 9.16675H13.3327C13.3327 10.3334 12.9299 11.3195 12.1243 12.1251C11.3188 12.9306 10.3327 13.3334 9.16602 13.3334V21.6667C10.3327 21.6667 11.3188 22.0695 12.1243 22.8751C12.9299 23.6806 13.3327 24.6667 13.3327 25.8334ZM33.3327 33.3334H4.16602C3.47157 33.3334 2.88129 33.0904 2.39518 32.6042C1.90907 32.1181 1.66602 31.5279 1.66602 30.8334V11.6667H4.16602V30.8334H33.3327V33.3334ZM9.16602 25.8334V9.16675V25.8334Z" fill="white"/>
</svg>
