<svg width="40" height="40" viewBox="0 0 40 40" fill="none" xmlns="http://www.w3.org/2000/svg">
<path d="M16.1673 36.6666L15.334 31.4166C14.8062 31.2221 14.2507 30.9583 13.6673 30.6249C13.084 30.2916 12.5701 29.9444 12.1257 29.5833L7.20898 31.8333L3.33398 24.9999L7.83398 21.7083C7.77843 21.4583 7.74371 21.1735 7.72982 20.8541C7.71593 20.5346 7.70898 20.2499 7.70898 19.9999C7.70898 19.7499 7.71593 19.4652 7.72982 19.1458C7.74371 18.8263 7.77843 18.5416 7.83398 18.2916L3.33398 14.9999L7.20898 8.16659L12.1257 10.4166C12.5701 10.0555 13.084 9.70825 13.6673 9.37492C14.2507 9.04159 14.8062 8.79159 15.334 8.62492L16.1673 3.33325H23.834L24.6673 8.58325C25.1951 8.7777 25.7576 9.03464 26.3548 9.35409C26.952 9.67353 27.459 10.0277 27.8757 10.4166L32.7923 8.16659L36.6673 14.9999L32.1673 18.2083C32.2229 18.486 32.2576 18.7846 32.2715 19.1041C32.2854 19.4235 32.2923 19.7221 32.2923 19.9999C32.2923 20.2777 32.2854 20.5694 32.2715 20.8749C32.2576 21.1805 32.2229 21.4721 32.1673 21.7499L36.6673 24.9999L32.7923 31.8333L27.8757 29.5833C27.4312 29.9444 26.9243 30.2985 26.3548 30.6458C25.7854 30.993 25.2229 31.2499 24.6673 31.4166L23.834 36.6666H16.1673ZM20.0007 25.4166C21.5007 25.4166 22.7784 24.8888 23.834 23.8333C24.8895 22.7777 25.4173 21.4999 25.4173 19.9999C25.4173 18.4999 24.8895 17.2221 23.834 16.1666C22.7784 15.111 21.5007 14.5833 20.0007 14.5833C18.5007 14.5833 17.2229 15.111 16.1673 16.1666C15.1118 17.2221 14.584 18.4999 14.584 19.9999C14.584 21.4999 15.1118 22.7777 16.1673 23.8333C17.2229 24.8888 18.5007 25.4166 20.0007 25.4166ZM20.0007 22.9166C19.1951 22.9166 18.5076 22.6319 17.9382 22.0624C17.3687 21.493 17.084 20.8055 17.084 19.9999C17.084 19.1944 17.3687 18.5069 17.9382 17.9374C18.5076 17.368 19.1951 17.0833 20.0007 17.0833C20.8062 17.0833 21.4937 17.368 22.0632 17.9374C22.6326 18.5069 22.9173 19.1944 22.9173 19.9999C22.9173 20.8055 22.6326 21.493 22.0632 22.0624C21.4937 22.6319 20.8062 22.9166 20.0007 22.9166ZM18.1673 34.1666H21.834L22.4173 29.4999C23.334 29.2777 24.202 28.9305 25.0215 28.4583C25.8409 27.986 26.584 27.4166 27.2507 26.7499L31.6673 28.6666L33.334 25.6666L29.4173 22.7916C29.5284 22.3194 29.6187 21.8541 29.6882 21.3958C29.7576 20.9374 29.7923 20.4721 29.7923 19.9999C29.7923 19.5277 29.7645 19.0624 29.709 18.6041C29.6534 18.1458 29.5562 17.6805 29.4173 17.2083L33.334 14.3333L31.6673 11.3333L27.2507 13.2499C26.6118 12.5277 25.8895 11.9235 25.084 11.4374C24.2784 10.9513 23.3895 10.6388 22.4173 10.4999L21.834 5.83325H18.1673L17.584 10.4999C16.6395 10.6944 15.7576 11.0277 14.9382 11.4999C14.1187 11.9721 13.3895 12.5555 12.7507 13.2499L8.33398 11.3333L6.66732 14.3333L10.584 17.2083C10.4729 17.6805 10.3826 18.1458 10.3132 18.6041C10.2437 19.0624 10.209 19.5277 10.209 19.9999C10.209 20.4721 10.2437 20.9374 10.3132 21.3958C10.3826 21.8541 10.4729 22.3194 10.584 22.7916L6.66732 25.6666L8.33398 28.6666L12.7507 26.7499C13.4173 27.4166 14.1604 27.986 14.9798 28.4583C15.7993 28.9305 16.6673 29.2777 17.584 29.4999L18.1673 34.1666Z" fill="white"/>
</svg>
