<svg width="40" height="40" viewBox="0 0 40 40" fill="none" xmlns="http://www.w3.org/2000/svg">
<path d="M5 38.3334V9.16675C5 8.50008 5.25 7.91675 5.75 7.41675C6.25 6.91675 6.83333 6.66675 7.5 6.66675H27.5C28.1667 6.66675 28.7569 6.91675 29.2708 7.41675C29.7847 7.91675 30.0417 8.50008 30.0417 9.16675V38.3334L17.5 33.0418L5 38.3334ZM7.5 34.5418L17.5 30.2501L27.5 34.5418V9.16675H7.5V34.5418ZM32.5 34.5834V4.16675H9.70833V1.66675H32.5C33.1667 1.66675 33.75 1.91675 34.25 2.41675C34.75 2.91675 35 3.50008 35 4.16675V34.5834H32.5ZM7.5 9.16675H27.5H17.5H7.5Z" fill="white"/>
</svg>
