<svg width="40" height="40" viewBox="0 0 40 40" fill="none" xmlns="http://www.w3.org/2000/svg">
<path d="M5 36.625V3.375L7.5 5.875L10 3.375L12.5 5.875L15 3.375L17.5 5.875L20 3.375L22.5 5.875L25 3.375L27.5 5.875L30 3.375L32.5 5.875L35 3.375V36.625L32.5 34.125L30 36.625L27.5 34.125L25 36.625L22.5 34.125L20 36.625L17.5 34.125L15 36.625L12.5 34.125L10 36.625L7.5 34.125L5 36.625ZM9.875 27.6667H30.2917V25.1667H9.875V27.6667ZM9.875 21.25H30.2917V18.75H9.875V21.25ZM9.875 14.7917H30.2917V12.2917H9.875V14.7917ZM7.5 32.4167H32.5V7.58333H7.5V32.4167ZM7.5 7.58333V32.4167V7.58333Z" fill="white"/>
</svg>
