<svg width="40" height="40" viewBox="0 0 40 40" fill="none" xmlns="http://www.w3.org/2000/svg">
<path d="M13.291 29.5833H26.7077V27.0833H13.291V29.5833ZM13.291 22.4999H26.7077V19.9999H13.291V22.4999ZM9.16602 36.6666C8.49935 36.6666 7.91602 36.4166 7.41602 35.9166C6.91602 35.4166 6.66602 34.8333 6.66602 34.1666V5.83325C6.66602 5.16659 6.91602 4.58325 7.41602 4.08325C7.91602 3.58325 8.49935 3.33325 9.16602 3.33325H24.2077L33.3327 12.4583V34.1666C33.3327 34.8333 33.0827 35.4166 32.5827 35.9166C32.0827 36.4166 31.4993 36.6666 30.8327 36.6666H9.16602ZM22.9577 13.5833V5.83325H9.16602V34.1666H30.8327V13.5833H22.9577ZM9.16602 5.83325V13.5833V5.83325V34.1666V5.83325Z" fill="white"/>
</svg>
