<svg width="40" height="40" viewBox="0 0 40 40" fill="none" xmlns="http://www.w3.org/2000/svg">
<path d="M9.25 36.6666C8.02778 36.6666 6.99306 36.243 6.14583 35.3958C5.29861 34.5485 4.875 33.5138 4.875 32.2916V27.0833H10.1667V3.33325L12.6667 5.83325L15.1667 3.33325L17.625 5.83325L20.125 3.33325L22.625 5.83325L25.125 3.33325L27.625 5.83325L30.125 3.33325L32.625 5.83325L35.125 3.33325V32.2916C35.125 33.5138 34.7014 34.5485 33.8542 35.3958C33.0069 36.243 31.9722 36.6666 30.75 36.6666H9.25ZM30.75 34.1666C31.3056 34.1666 31.7569 33.993 32.1042 33.6458C32.4514 33.2985 32.625 32.8471 32.625 32.2916V7.49992H12.6667V27.0833H28.875V32.2916C28.875 32.8471 29.0486 33.2985 29.3958 33.6458C29.7431 33.993 30.1944 34.1666 30.75 34.1666ZM14.875 14.0833V11.5833H24.875V14.0833H14.875ZM14.875 19.6666V17.1666H24.875V19.6666H14.875ZM28.75 14.0833C28.4167 14.0833 28.125 13.9583 27.875 13.7083C27.625 13.4583 27.5 13.1666 27.5 12.8333C27.5 12.4999 27.625 12.2083 27.875 11.9583C28.125 11.7083 28.4167 11.5833 28.75 11.5833C29.0833 11.5833 29.375 11.7083 29.625 11.9583C29.875 12.2083 30 12.4999 30 12.8333C30 13.1666 29.875 13.4583 29.625 13.7083C29.375 13.9583 29.0833 14.0833 28.75 14.0833ZM28.75 19.4583C28.4167 19.4583 28.125 19.3333 27.875 19.0833C27.625 18.8333 27.5 18.5416 27.5 18.2083C27.5 17.8749 27.625 17.5833 27.875 17.3333C28.125 17.0833 28.4167 16.9583 28.75 16.9583C29.0833 16.9583 29.375 17.0833 29.625 17.3333C29.875 17.5833 30 17.8749 30 18.2083C30 18.5416 29.875 18.8333 29.625 19.0833C29.375 19.3333 29.0833 19.4583 28.75 19.4583ZM9.20833 34.1666H26.375V29.5833H7.375V32.2916C7.375 32.8471 7.54861 33.2985 7.89583 33.6458C8.24306 33.993 8.68056 34.1666 9.20833 34.1666ZM7.375 34.1666V29.5833V34.1666Z" fill="white"/>
</svg>
