<svg width="40" height="40" viewBox="0 0 40 40" fill="none" xmlns="http://www.w3.org/2000/svg">
<path d="M10.8743 35C10.2077 35 9.62435 34.75 9.12435 34.25C8.62435 33.75 8.37435 33.1667 8.37435 32.5V8.75H6.66602V6.25H14.4993V5H25.4993V6.25H33.3327V8.75H31.6243V32.5C31.6243 33.1667 31.3743 33.75 30.8743 34.25C30.3743 34.75 29.791 35 29.1243 35H10.8743ZM29.1243 8.75H10.8743V32.5H29.1243V8.75ZM15.291 28.9167H17.791V12.2917H15.291V28.9167ZM22.2077 28.9167H24.7077V12.2917H22.2077V28.9167ZM10.8743 8.75V32.5V8.75Z" fill="white"/>
</svg>
