<svg width="33" height="33" viewBox="0 0 33 33" fill="none" xmlns="http://www.w3.org/2000/svg">
<circle cx="16.5" cy="16.5" r="16.5" fill="#867EF1" fill-opacity="0.31"/>
<path d="M9.52539 21.4762V19.9375C9.52539 19.5556 9.6236 19.2091 9.82003 18.8981C10.0165 18.5871 10.2893 18.3552 10.6385 18.2024C11.4351 17.8532 12.1526 17.6022 12.791 17.4494C13.4294 17.2967 14.0869 17.2203 14.7635 17.2203C15.4401 17.2203 16.0948 17.2967 16.7278 17.4494C17.3607 17.6022 18.0755 17.8532 18.8721 18.2024C19.2213 18.3552 19.4969 18.5871 19.6988 18.8981C19.9006 19.2091 20.0016 19.5556 20.0016 19.9375V21.4762H9.52539ZM20.9837 21.4762V19.9375C20.9837 19.25 20.8091 18.6853 20.4599 18.2433C20.1107 17.8014 19.6524 17.444 19.0849 17.1712C19.8379 17.2585 20.5472 17.3867 21.2129 17.5558C21.8786 17.725 22.4187 17.9187 22.8334 18.1369C23.1935 18.3443 23.4773 18.6007 23.6846 18.9063C23.892 19.2118 23.9956 19.5556 23.9956 19.9375V21.4762H20.9837ZM14.7635 16.2217C14.0432 16.2217 13.454 15.9926 12.9956 15.5342C12.5373 15.0759 12.3081 14.4866 12.3081 13.7664C12.3081 13.0462 12.5373 12.4569 12.9956 11.9985C13.454 11.5402 14.0432 11.311 14.7635 11.311C15.4837 11.311 16.073 11.5402 16.5313 11.9985C16.9897 12.4569 17.2188 13.0462 17.2188 13.7664C17.2188 14.4866 16.9897 15.0759 16.5313 15.5342C16.073 15.9926 15.4837 16.2217 14.7635 16.2217ZM20.6563 13.7664C20.6563 14.4866 20.4272 15.0759 19.9688 15.5342C19.5105 15.9926 18.9212 16.2217 18.201 16.2217C18.0809 16.2217 17.9473 16.2136 17.7999 16.1972C17.6526 16.1808 17.5189 16.1508 17.3989 16.1072C17.6608 15.8343 17.86 15.4988 17.9964 15.1005C18.1328 14.7022 18.201 14.2575 18.201 13.7664C18.201 13.2753 18.1328 12.8415 17.9964 12.4651C17.86 12.0886 17.6608 11.7421 17.3989 11.4256C17.5189 11.3929 17.6526 11.3656 17.7999 11.3438C17.9473 11.3219 18.0809 11.311 18.201 11.311C18.9212 11.311 19.5105 11.5402 19.9688 11.9985C20.4272 12.4569 20.6563 13.0462 20.6563 13.7664ZM10.5075 20.4941H19.0194V19.9375C19.0194 19.7629 18.9676 19.5938 18.8639 19.4301C18.7603 19.2664 18.632 19.1518 18.4793 19.0863C17.6935 18.7371 17.0333 18.5025 16.4986 18.3825C15.9639 18.2624 15.3855 18.2024 14.7635 18.2024C14.1415 18.2024 13.5604 18.2624 13.0202 18.3825C12.48 18.5025 11.8171 18.7371 11.0313 19.0863C10.8786 19.1518 10.7531 19.2664 10.6549 19.4301C10.5566 19.5938 10.5075 19.7629 10.5075 19.9375V20.4941ZM14.7635 15.2396C15.1891 15.2396 15.541 15.1005 15.8193 14.8222C16.0976 14.5439 16.2367 14.192 16.2367 13.7664C16.2367 13.3408 16.0976 12.9889 15.8193 12.7106C15.541 12.4323 15.1891 12.2932 14.7635 12.2932C14.3379 12.2932 13.986 12.4323 13.7077 12.7106C13.4294 12.9889 13.2903 13.3408 13.2903 13.7664C13.2903 14.192 13.4294 14.5439 13.7077 14.8222C13.986 15.1005 14.3379 15.2396 14.7635 15.2396Z" fill="#867EF1"/>
</svg>
