<svg width="40" height="40" viewBox="0 0 40 40" fill="none" xmlns="http://www.w3.org/2000/svg">
<path d="M1.58398 33.3333V29.4166C1.58398 28.4444 1.83398 27.5624 2.33398 26.7708C2.83398 25.9791 3.52843 25.3888 4.41732 24.9999C6.4451 24.111 8.27148 23.4721 9.89649 23.0833C11.5215 22.6944 13.1951 22.4999 14.9173 22.4999C16.6395 22.4999 18.3062 22.6944 19.9173 23.0833C21.5284 23.4721 23.3479 24.111 25.3757 24.9999C26.2645 25.3888 26.9659 25.9791 27.4798 26.7708C27.9937 27.5624 28.2507 28.4444 28.2507 29.4166V33.3333H1.58398ZM30.7507 33.3333V29.4166C30.7507 27.6666 30.3062 26.2291 29.4173 25.1041C28.5284 23.9791 27.3618 23.0694 25.9173 22.3749C27.834 22.5971 29.6395 22.9235 31.334 23.3541C33.0284 23.7846 34.4034 24.2777 35.459 24.8333C36.3757 25.361 37.0979 26.0138 37.6257 26.7916C38.1534 27.5694 38.4173 28.4444 38.4173 29.4166V33.3333H30.7507ZM14.9173 19.9583C13.084 19.9583 11.584 19.3749 10.4173 18.2083C9.25065 17.0416 8.66732 15.5416 8.66732 13.7083C8.66732 11.8749 9.25065 10.3749 10.4173 9.20825C11.584 8.04159 13.084 7.45825 14.9173 7.45825C16.7507 7.45825 18.2507 8.04159 19.4173 9.20825C20.584 10.3749 21.1673 11.8749 21.1673 13.7083C21.1673 15.5416 20.584 17.0416 19.4173 18.2083C18.2507 19.3749 16.7507 19.9583 14.9173 19.9583V19.9583ZM29.9173 13.7083C29.9173 15.5416 29.334 17.0416 28.1673 18.2083C27.0007 19.3749 25.5007 19.9583 23.6673 19.9583C23.3618 19.9583 23.0215 19.9374 22.6465 19.8958C22.2715 19.8541 21.9312 19.7777 21.6257 19.6666C22.2923 18.9721 22.7993 18.118 23.1465 17.1041C23.4937 16.0902 23.6673 14.9583 23.6673 13.7083C23.6673 12.4583 23.4937 11.3541 23.1465 10.3958C22.7993 9.43742 22.2923 8.55547 21.6257 7.74992C21.9312 7.66659 22.2715 7.59714 22.6465 7.54159C23.0215 7.48603 23.3618 7.45825 23.6673 7.45825C25.5007 7.45825 27.0007 8.04159 28.1673 9.20825C29.334 10.3749 29.9173 11.8749 29.9173 13.7083V13.7083ZM4.08398 30.8333H25.7507V29.4166C25.7507 28.9721 25.6187 28.5416 25.3548 28.1249C25.0909 27.7083 24.7645 27.4166 24.3757 27.2499C22.3757 26.361 20.6951 25.7638 19.334 25.4583C17.9729 25.1527 16.5007 24.9999 14.9173 24.9999C13.334 24.9999 11.8548 25.1527 10.4798 25.4583C9.10482 25.7638 7.41732 26.361 5.41732 27.2499C5.02843 27.4166 4.70898 27.7083 4.45898 28.1249C4.20898 28.5416 4.08398 28.9721 4.08398 29.4166V30.8333ZM14.9173 17.4583C16.0007 17.4583 16.8965 17.1041 17.6048 16.3958C18.3132 15.6874 18.6673 14.7916 18.6673 13.7083C18.6673 12.6249 18.3132 11.7291 17.6048 11.0208C16.8965 10.3124 16.0007 9.95825 14.9173 9.95825C13.834 9.95825 12.9382 10.3124 12.2298 11.0208C11.5215 11.7291 11.1673 12.6249 11.1673 13.7083C11.1673 14.7916 11.5215 15.6874 12.2298 16.3958C12.9382 17.1041 13.834 17.4583 14.9173 17.4583Z" fill="white"/>
</svg>
