<svg width="63" height="63" viewBox="0 0 63 63" fill="none" xmlns="http://www.w3.org/2000/svg">
<circle cx="31.5" cy="31.5" r="31.5" fill="#00465E"/>
<path d="M20.75 44.75V22.875C20.75 22.375 20.9375 21.9375 21.3125 21.5625C21.6875 21.1875 22.125 21 22.625 21H37.625C38.125 21 38.5677 21.1875 38.9531 21.5625C39.3385 21.9375 39.5312 22.375 39.5312 22.875V44.75L30.125 40.7813L20.75 44.75ZM22.625 41.9063L30.125 38.6875L37.625 41.9063V22.875H22.625V41.9063ZM41.375 41.9375V19.125H24.2812V17.25H41.375C41.875 17.25 42.3125 17.4375 42.6875 17.8125C43.0625 18.1875 43.25 18.625 43.25 19.125V41.9375H41.375ZM22.625 22.875H37.625H30.125H22.625Z" fill="white"/>
</svg>
