<svg width="859" height="871" viewBox="0 0 859 871" fill="none" xmlns="http://www.w3.org/2000/svg">
<rect y="12" width="859" height="859" rx="78" fill="white"/>
<path d="M522.574 323.96C520.528 303.335 511.75 287.312 496.239 275.892C480.727 264.472 459.676 258.761 433.085 258.761C415.017 258.761 399.761 261.318 387.318 266.432C374.875 271.375 365.33 278.278 358.682 287.142C352.205 296.006 348.966 306.062 348.966 317.312C348.625 326.688 350.585 334.869 354.847 341.858C359.278 348.847 365.33 354.898 373 360.011C380.67 364.955 389.534 369.301 399.591 373.051C409.648 376.631 420.386 379.699 431.807 382.256L478.852 393.506C501.693 398.619 522.659 405.437 541.75 413.96C560.841 422.483 577.375 432.966 591.352 445.409C605.33 457.852 616.153 472.511 623.824 489.386C631.665 506.261 635.67 525.608 635.841 547.426C635.67 579.472 627.489 607.256 611.295 630.778C595.273 654.131 572.091 672.284 541.75 685.239C511.58 698.023 475.188 704.415 432.574 704.415C390.301 704.415 353.483 697.938 322.119 684.983C290.926 672.028 266.551 652.852 248.994 627.455C231.608 601.886 222.489 570.267 221.636 532.597H328.767C329.96 550.153 334.989 564.812 343.852 576.574C352.886 588.165 364.903 596.943 379.903 602.909C395.074 608.705 412.205 611.602 431.295 611.602C450.045 611.602 466.324 608.875 480.131 603.42C494.108 597.966 504.932 590.381 512.602 580.665C520.273 570.949 524.108 559.784 524.108 547.17C524.108 535.409 520.614 525.523 513.625 517.511C506.807 509.5 496.75 502.682 483.455 497.057C470.33 491.432 454.222 486.318 435.131 481.716L378.114 467.398C333.966 456.659 299.108 439.869 273.54 417.028C247.972 394.187 235.273 363.42 235.443 324.727C235.273 293.023 243.71 265.324 260.756 241.631C277.972 217.937 301.58 199.443 331.58 186.148C361.58 172.852 395.67 166.205 433.852 166.205C472.716 166.205 506.636 172.852 535.614 186.148C564.761 199.443 587.432 217.937 603.625 241.631C619.818 265.324 628.17 292.767 628.682 323.96H522.574Z" fill="#00D98A"/>
</svg>
