<svg width="4989" height="883" viewBox="0 0 4989 883" fill="none" xmlns="http://www.w3.org/2000/svg">
<rect y="12" width="859" height="859" rx="78" fill="white"/>
<path d="M522.574 323.96C520.528 303.335 511.75 287.312 496.239 275.892C480.727 264.472 459.676 258.761 433.085 258.761C415.017 258.761 399.761 261.318 387.318 266.432C374.875 271.375 365.33 278.278 358.682 287.142C352.205 296.006 348.966 306.062 348.966 317.312C348.625 326.688 350.585 334.869 354.847 341.858C359.278 348.847 365.33 354.898 373 360.011C380.67 364.955 389.534 369.301 399.591 373.051C409.648 376.631 420.386 379.699 431.807 382.256L478.852 393.506C501.693 398.619 522.659 405.437 541.75 413.96C560.841 422.483 577.375 432.966 591.352 445.409C605.33 457.852 616.153 472.511 623.824 489.386C631.665 506.261 635.67 525.608 635.841 547.426C635.67 579.472 627.489 607.256 611.295 630.778C595.273 654.131 572.091 672.284 541.75 685.239C511.58 698.023 475.188 704.415 432.574 704.415C390.301 704.415 353.483 697.938 322.119 684.983C290.926 672.028 266.551 652.852 248.994 627.455C231.608 601.886 222.489 570.267 221.636 532.597H328.767C329.96 550.153 334.989 564.812 343.852 576.574C352.886 588.165 364.903 596.943 379.903 602.909C395.074 608.705 412.205 611.602 431.295 611.602C450.045 611.602 466.324 608.875 480.131 603.42C494.108 597.966 504.932 590.381 512.602 580.665C520.273 570.949 524.108 559.784 524.108 547.17C524.108 535.409 520.614 525.523 513.625 517.511C506.807 509.5 496.75 502.682 483.455 497.057C470.33 491.432 454.222 486.318 435.131 481.716L378.114 467.398C333.966 456.659 299.108 439.869 273.54 417.028C247.972 394.187 235.273 363.42 235.443 324.727C235.273 293.023 243.71 265.324 260.756 241.631C277.972 217.937 301.58 199.443 331.58 186.148C361.58 172.852 395.67 166.205 433.852 166.205C472.716 166.205 506.636 172.852 535.614 186.148C564.761 199.443 587.432 217.937 603.625 241.631C619.818 265.324 628.17 292.767 628.682 323.96H522.574Z" fill="#00D98A"/>
<path d="M1039.51 709V185.364H1246.1C1285.82 185.364 1319.65 192.949 1347.61 208.119C1375.56 223.119 1396.87 244 1411.53 270.761C1426.36 297.352 1433.77 328.034 1433.77 362.807C1433.77 397.58 1426.27 428.261 1411.27 454.852C1396.27 481.443 1374.54 502.153 1346.07 516.983C1317.78 531.812 1283.52 539.227 1243.29 539.227H1111.61V450.506H1225.39C1246.7 450.506 1264.26 446.841 1278.06 439.511C1292.04 432.011 1302.44 421.699 1309.26 408.574C1316.24 395.278 1319.74 380.023 1319.74 362.807C1319.74 345.42 1316.24 330.25 1309.26 317.295C1302.44 304.17 1292.04 294.028 1278.06 286.869C1264.09 279.54 1246.36 275.875 1224.88 275.875H1150.22V709H1039.51ZM1535.47 709H1416.83L1597.6 185.364H1740.27L1920.78 709H1802.15L1670.98 305.023H1666.89L1535.47 709ZM1528.06 503.176H1808.28V589.597H1528.06V503.176ZM1899.69 185.364H2023.69L2143.1 410.875H2148.21L2267.62 185.364H2391.62L2200.63 523.886V709H2090.68V523.886L1899.69 185.364ZM2452.09 185.364H2588.62L2732.83 537.182H2738.96L2883.17 185.364H3019.7V709H2912.32V368.176H2907.97L2772.46 706.443H2699.33L2563.82 366.898H2559.48V709H2452.09V185.364ZM3110.92 709V185.364H3463.76V276.642H3221.63V401.415H3445.61V492.693H3221.63V617.722H3464.78V709H3110.92ZM3989.76 185.364V709H3894.13L3666.32 379.426H3662.49V709H3551.78V185.364H3648.94L3874.96 514.682H3879.56V185.364H3989.76ZM4061.29 276.642V185.364H4491.34V276.642H4331.03V709H4221.6V276.642H4061.29ZM4846.23 335.96C4844.18 315.335 4835.41 299.312 4819.89 287.892C4804.38 276.472 4783.33 270.761 4756.74 270.761C4738.67 270.761 4723.42 273.318 4710.97 278.432C4698.53 283.375 4688.99 290.278 4682.34 299.142C4675.86 308.006 4672.62 318.062 4672.62 329.312C4672.28 338.688 4674.24 346.869 4678.5 353.858C4682.93 360.847 4688.99 366.898 4696.66 372.011C4704.33 376.955 4713.19 381.301 4723.25 385.051C4733.3 388.631 4744.04 391.699 4755.46 394.256L4802.51 405.506C4825.35 410.619 4846.32 417.437 4865.41 425.96C4884.5 434.483 4901.03 444.966 4915.01 457.409C4928.99 469.852 4939.81 484.511 4947.48 501.386C4955.32 518.261 4959.33 537.608 4959.5 559.426C4959.33 591.472 4951.14 619.256 4934.95 642.778C4918.93 666.131 4895.75 684.284 4865.41 697.239C4835.24 710.023 4798.84 716.415 4756.23 716.415C4713.96 716.415 4677.14 709.938 4645.78 696.983C4614.58 684.028 4590.21 664.852 4572.65 639.455C4555.26 613.886 4546.14 582.267 4545.29 544.597H4652.42C4653.62 562.153 4658.64 576.812 4667.51 588.574C4676.54 600.165 4688.56 608.943 4703.56 614.909C4718.73 620.705 4735.86 623.602 4754.95 623.602C4773.7 623.602 4789.98 620.875 4803.79 615.42C4817.76 609.966 4828.59 602.381 4836.26 592.665C4843.93 582.949 4847.76 571.784 4847.76 559.17C4847.76 547.409 4844.27 537.523 4837.28 529.511C4830.46 521.5 4820.41 514.682 4807.11 509.057C4793.99 503.432 4777.88 498.318 4758.79 493.716L4701.77 479.398C4657.62 468.659 4622.76 451.869 4597.2 429.028C4571.63 406.187 4558.93 375.42 4559.1 336.727C4558.93 305.023 4567.37 277.324 4584.41 253.631C4601.63 229.937 4625.24 211.443 4655.24 198.148C4685.24 184.852 4719.33 178.205 4757.51 178.205C4796.37 178.205 4830.29 184.852 4859.27 198.148C4888.42 211.443 4911.09 229.937 4927.28 253.631C4943.47 277.324 4951.83 304.767 4952.34 335.96H4846.23Z" fill="white"/>
</svg>
