<svg width="1024" height="1024" viewBox="0 0 1024 1024" fill="none" xmlns="http://www.w3.org/2000/svg">
<rect width="1024" height="1024" rx="60" fill="white"/>
<path d="M268.709 233.019C268.002 231.064 269.451 229 271.53 229H363.867C365.142 229 366.278 229.806 366.699 231.009L508.552 636.465C509.489 639.144 513.278 639.144 514.215 636.465L656.068 231.009C656.489 229.806 657.624 229 658.899 229H751.236C753.315 229 754.764 231.064 754.058 233.019L551.75 793.019C551.32 794.208 550.192 795 548.928 795H473.838C472.574 795 471.446 794.208 471.017 793.019L268.709 233.019ZM214 232C214 230.343 215.343 229 217 229H309.48C311.085 229 312.406 230.264 312.477 231.868L330.232 634.063V792C330.232 793.657 328.889 795 327.232 795H217C215.343 795 214 793.657 214 792V232ZM710.29 231.868C710.36 230.264 711.681 229 713.287 229H806.155C807.812 229 809.155 230.343 809.155 232V792C809.155 793.657 807.812 795 806.155 795H695.534C693.877 795 692.534 793.657 692.534 792V634.063L710.29 231.868Z" fill="#00D98A"/>
</svg>
