<svg width="182" height="39" viewBox="0 0 182 39" fill="none" xmlns="http://www.w3.org/2000/svg">
<path d="M47.3639 29.477V15.5986H52.2205V33.8446H47.6506L47.3639 29.477ZM47.9035 25.7334L49.3369 25.6997C49.3369 26.9138 49.1964 28.0437 48.9153 29.0892C48.6343 30.1235 48.2127 31.0228 47.6506 31.7873C47.0885 32.5405 46.3802 33.1308 45.5258 33.558C44.6714 33.9739 43.6652 34.1819 42.5073 34.1819C41.6192 34.1819 40.7985 34.0582 40.0453 33.8109C39.3033 33.5523 38.6625 33.1532 38.1229 32.6136C37.5945 32.0627 37.1785 31.3601 36.875 30.5057C36.5827 29.6401 36.4365 28.6002 36.4365 27.386V15.5986H41.2931V27.4197C41.2931 27.9593 41.355 28.4147 41.4786 28.7856C41.6135 29.1566 41.799 29.4602 42.0351 29.6963C42.2712 29.9324 42.5467 30.101 42.8614 30.2022C43.1875 30.3033 43.5472 30.3539 43.9407 30.3539C44.9412 30.3539 45.7282 30.1516 46.3015 29.7469C46.8861 29.3421 47.2965 28.7913 47.5326 28.0943C47.7799 27.386 47.9035 26.599 47.9035 25.7334Z" fill="white"/>
<path d="M60.9894 20.1854V34.536H56.1328V16.29H60.6859L60.9894 20.1854ZM60.2812 24.7722H58.9659C58.9659 23.4231 59.1401 22.209 59.4886 21.1297C59.8371 20.0392 60.3262 19.1117 60.9557 18.3473C61.5853 17.5716 62.3329 16.9814 63.1985 16.5766C64.0754 16.1607 65.0535 15.9527 66.1328 15.9527C66.9872 15.9527 67.7685 16.0764 68.4767 16.3237C69.185 16.571 69.7921 16.9645 70.298 17.5041C70.8151 18.0437 71.2086 18.7576 71.4784 19.6458C71.7595 20.5339 71.9 21.6188 71.9 22.9004V34.536H67.0096V22.8835C67.0096 22.0741 66.8972 21.4445 66.6724 20.9948C66.4475 20.5451 66.1159 20.2303 65.6774 20.0505C65.2502 19.8594 64.7219 19.7638 64.0923 19.7638C63.4402 19.7638 62.8725 19.8931 62.3891 20.1517C61.9169 20.4102 61.5235 20.77 61.2087 21.2309C60.9051 21.6806 60.6747 22.209 60.5173 22.816C60.3599 23.4231 60.2812 24.0752 60.2812 24.7722Z" fill="white"/>
<path d="M86.3687 30.5563V8.63403H91.259V34.536H86.8577L86.3687 30.5563ZM74.8342 25.6322V25.2781C74.8342 23.8841 74.9916 22.6193 75.3064 21.4838C75.6212 20.3371 76.0821 19.3535 76.6892 18.5328C77.2962 17.7121 78.0438 17.0769 78.932 16.6272C79.8201 16.1775 80.8319 15.9527 81.9674 15.9527C83.0354 15.9527 83.9685 16.1775 84.7667 16.6272C85.5761 17.0769 86.2619 17.7177 86.824 18.5496C87.3973 19.3703 87.8583 20.3428 88.2068 21.467C88.5553 22.58 88.8082 23.7997 88.9656 25.1263V25.902C88.8082 27.1724 88.5553 28.3528 88.2068 29.4433C87.8583 30.5338 87.3973 31.4894 86.824 32.3101C86.2619 33.1195 85.5761 33.7491 84.7667 34.1988C83.9572 34.6484 83.0129 34.8733 81.9336 34.8733C80.7982 34.8733 79.7864 34.6428 78.8982 34.1819C78.0214 33.721 77.2794 33.0745 76.6723 32.2426C76.0765 31.4107 75.6212 30.4326 75.3064 29.3084C74.9916 28.1842 74.8342 26.9588 74.8342 25.6322ZM79.6908 25.2781V25.6322C79.6908 26.3854 79.747 27.0881 79.8595 27.7401C79.9831 28.3922 80.1799 28.9711 80.4497 29.477C80.7307 29.9717 81.0905 30.3596 81.5289 30.6406C81.9786 30.9104 82.5239 31.0453 83.1647 31.0453C83.9966 31.0453 84.6824 30.8598 85.222 30.4888C85.7616 30.1066 86.1719 29.5838 86.453 28.9206C86.7453 28.2573 86.9139 27.4928 86.9589 26.6271V24.4181C86.9252 23.7098 86.824 23.0746 86.6554 22.5125C86.498 21.9392 86.2619 21.4501 85.9471 21.0454C85.6436 20.6407 85.2613 20.3259 84.8004 20.1011C84.3507 19.8762 83.8167 19.7638 83.1984 19.7638C82.5688 19.7638 82.0292 19.9099 81.5795 20.2022C81.1298 20.4833 80.7644 20.8711 80.4834 21.3658C80.2136 21.8605 80.0112 22.4451 79.8763 23.1196C79.7527 23.7829 79.6908 24.5024 79.6908 25.2781Z" fill="white"/>
<path d="M100.18 8.63403V34.536H95.3062V8.63403H100.18Z" fill="white"/>
<path d="M112.591 34.8733C111.175 34.8733 109.904 34.6484 108.78 34.1988C107.656 33.7378 106.7 33.1026 105.913 32.2932C105.138 31.4838 104.542 30.545 104.126 29.477C103.71 28.3978 103.502 27.2511 103.502 26.0369V25.3624C103.502 23.9796 103.698 22.7149 104.092 21.5682C104.485 20.4215 105.048 19.4265 105.778 18.5834C106.52 17.7402 107.42 17.0938 108.476 16.6441C109.533 16.1832 110.725 15.9527 112.051 15.9527C113.344 15.9527 114.491 16.1663 115.492 16.5935C116.492 17.0207 117.33 17.6278 118.004 18.4147C118.69 19.2017 119.207 20.146 119.556 21.2478C119.904 22.3383 120.078 23.5524 120.078 24.8902V26.9138H105.576V23.6761H115.306V23.3051C115.306 22.6306 115.182 22.0291 114.935 21.5007C114.699 20.9611 114.339 20.5339 113.856 20.2191C113.372 19.9043 112.754 19.7469 112.001 19.7469C111.36 19.7469 110.809 19.8875 110.348 20.1685C109.887 20.4496 109.511 20.843 109.218 21.3489C108.937 21.8548 108.724 22.4507 108.578 23.1365C108.443 23.811 108.375 24.553 108.375 25.3624V26.0369C108.375 26.7677 108.476 27.4422 108.679 28.0605C108.892 28.6788 109.19 29.2128 109.573 29.6625C109.966 30.1122 110.438 30.4607 110.989 30.7081C111.551 30.9554 112.186 31.0791 112.895 31.0791C113.772 31.0791 114.587 30.9104 115.34 30.5732C116.104 30.2246 116.762 29.7019 117.313 29.0049L119.674 31.5681C119.291 32.119 118.769 32.6473 118.105 33.1532C117.453 33.6591 116.666 34.0751 115.745 34.4011C114.823 34.7159 113.771 34.8733 112.591 34.8733Z" fill="white"/>
<path d="M127.701 20.2697V34.536H122.844V16.29H127.414L127.701 20.2697ZM133.198 16.1719L133.114 20.6744C132.878 20.6407 132.591 20.6126 132.254 20.5901C131.928 20.5564 131.63 20.5395 131.36 20.5395C130.674 20.5395 130.078 20.6294 129.572 20.8093C129.078 20.978 128.662 21.2309 128.325 21.5682C127.998 21.9054 127.751 22.3158 127.583 22.7992C127.425 23.2826 127.335 23.8335 127.313 24.4518L126.335 24.1482C126.335 22.9678 126.453 21.8829 126.689 20.8936C126.925 19.8931 127.268 19.0218 127.717 18.2798C128.178 17.5378 128.74 16.9645 129.404 16.5598C130.067 16.1551 130.826 15.9527 131.68 15.9527C131.95 15.9527 132.226 15.9752 132.507 16.0201C132.788 16.0539 133.018 16.1045 133.198 16.1719Z" fill="white"/>
<path d="M143.552 34.8733C142.136 34.8733 140.865 34.6484 139.741 34.1988C138.617 33.7378 137.661 33.1026 136.874 32.2932C136.098 31.4838 135.503 30.545 135.087 29.477C134.671 28.3978 134.463 27.2511 134.463 26.0369V25.3624C134.463 23.9796 134.659 22.7149 135.053 21.5682C135.446 20.4215 136.009 19.4265 136.739 18.5834C137.481 17.7402 138.381 17.0938 139.437 16.6441C140.494 16.1832 141.686 15.9527 143.012 15.9527C144.305 15.9527 145.452 16.1663 146.453 16.5935C147.453 17.0207 148.291 17.6278 148.965 18.4147C149.651 19.2017 150.168 20.146 150.517 21.2478C150.865 22.3383 151.039 23.5524 151.039 24.8902V26.9138H136.537V23.6761H146.267V23.3051C146.267 22.6306 146.143 22.0291 145.896 21.5007C145.66 20.9611 145.3 20.5339 144.817 20.2191C144.333 19.9043 143.715 19.7469 142.962 19.7469C142.321 19.7469 141.77 19.8875 141.309 20.1685C140.848 20.4496 140.472 20.843 140.179 21.3489C139.898 21.8548 139.685 22.4507 139.539 23.1365C139.404 23.811 139.336 24.553 139.336 25.3624V26.0369C139.336 26.7677 139.437 27.4422 139.64 28.0605C139.853 28.6788 140.151 29.2128 140.534 29.6625C140.927 30.1122 141.399 30.4607 141.95 30.7081C142.512 30.9554 143.147 31.0791 143.856 31.0791C144.732 31.0791 145.548 30.9104 146.301 30.5732C147.065 30.2246 147.723 29.7019 148.274 29.0049L150.635 31.5681C150.252 32.119 149.73 32.6473 149.066 33.1532C148.414 33.6591 147.627 34.0751 146.705 34.4011C145.784 34.7159 144.732 34.8733 143.552 34.8733Z" fill="white"/>
<path d="M158.662 20.2697V34.536H153.805V16.29H158.375L158.662 20.2697ZM164.159 16.1719L164.075 20.6744C163.839 20.6407 163.552 20.6126 163.215 20.5901C162.889 20.5564 162.591 20.5395 162.321 20.5395C161.635 20.5395 161.039 20.6294 160.533 20.8093C160.039 20.978 159.623 21.2309 159.285 21.5682C158.959 21.9054 158.712 22.3158 158.543 22.7992C158.386 23.2826 158.296 23.8335 158.274 24.4518L157.296 24.1482C157.296 22.9678 157.414 21.8829 157.65 20.8936C157.886 19.8931 158.229 19.0218 158.678 18.2798C159.139 17.5378 159.701 16.9645 160.365 16.5598C161.028 16.1551 161.787 15.9527 162.641 15.9527C162.911 15.9527 163.187 15.9752 163.468 16.0201C163.749 16.0539 163.979 16.1045 164.159 16.1719Z" fill="white"/>
<path d="M174.513 34.8733C173.096 34.8733 171.826 34.6484 170.702 34.1988C169.578 33.7378 168.622 33.1026 167.835 32.2932C167.059 31.4838 166.464 30.545 166.048 29.477C165.632 28.3978 165.424 27.2511 165.424 26.0369V25.3624C165.424 23.9796 165.62 22.7149 166.014 21.5682C166.407 20.4215 166.97 19.4265 167.7 18.5834C168.442 17.7402 169.342 17.0938 170.398 16.6441C171.455 16.1832 172.647 15.9527 173.973 15.9527C175.266 15.9527 176.413 16.1663 177.414 16.5935C178.414 17.0207 179.252 17.6278 179.926 18.4147C180.612 19.2017 181.129 20.146 181.478 21.2478C181.826 22.3383 182 23.5524 182 24.8902V26.9138H167.498V23.6761H177.228V23.3051C177.228 22.6306 177.104 22.0291 176.857 21.5007C176.621 20.9611 176.261 20.5339 175.778 20.2191C175.294 19.9043 174.676 19.7469 173.923 19.7469C173.282 19.7469 172.731 19.8875 172.27 20.1685C171.809 20.4496 171.433 20.843 171.14 21.3489C170.859 21.8548 170.646 22.4507 170.5 23.1365C170.365 23.811 170.297 24.553 170.297 25.3624V26.0369C170.297 26.7677 170.398 27.4422 170.601 28.0605C170.814 28.6788 171.112 29.2128 171.494 29.6625C171.888 30.1122 172.36 30.4607 172.911 30.7081C173.473 30.9554 174.108 31.0791 174.817 31.0791C175.693 31.0791 176.509 30.9104 177.262 30.5732C178.026 30.2246 178.684 29.7019 179.235 29.0049L181.596 31.5681C181.213 32.119 180.691 32.6473 180.027 33.1532C179.375 33.6591 178.588 34.0751 177.666 34.4011C176.745 34.7159 175.693 34.8733 174.513 34.8733Z" fill="white"/>
<circle cx="112.659" cy="4.317" r="4.317" fill="white"/>
<circle cx="143.741" cy="4.317" r="4.317" fill="white"/>
<circle cx="174.823" cy="4.317" r="4.317" fill="white"/>
<rect y="6.59937" width="32.0271" height="32.0271" rx="5" fill="white"/>
<path d="M8.36002 13.7617H11.4482L15.9954 26.7589L20.5426 13.7617H23.6308L17.2356 31.4642H14.7553L8.36002 13.7617ZM6.69434 13.7617H9.77038L10.3297 26.4307V31.4642H6.69434V13.7617ZM22.2205 13.7617H25.3087V31.4642H21.6612V26.4307L22.2205 13.7617Z" fill="#00D98A"/>
</svg>
